<svg xmlns="http://www.w3.org/2000/svg" viewBox="0 0 64 64" width="64" height="64">
  <defs>
    <linearGradient id="bg" x1="0" y1="0" x2="1" y2="1">
      <stop offset="0%" stop-color="#1a3c6e"/>
      <stop offset="100%" stop-color="#2b5ea7"/>
    </linearGradient>
  </defs>
  <rect width="64" height="64" rx="12" fill="url(#bg)"/>
  <circle cx="32" cy="32" r="22" fill="none" stroke="#c8a45e" stroke-width="1.5" opacity="0.6"/>
  <circle cx="32" cy="32" r="16" fill="none" stroke="#c8a45e" stroke-width="1" opacity="0.4"/>
  <line x1="32" y1="10" x2="32" y2="54" stroke="#c8a45e" stroke-width="0.8" opacity="0.35"/>
  <line x1="10" y1="32" x2="54" y2="32" stroke="#c8a45e" stroke-width="0.8" opacity="0.35"/>
  <line x1="16" y1="16" x2="48" y2="48" stroke="#c8a45e" stroke-width="0.6" opacity="0.25"/>
  <circle cx="32" cy="32" r="3" fill="#c8a45e"/>
  <rect x="24" y="20" width="16" height="22" rx="2" fill="#faf6ee" opacity="0.95"/>
  <rect x="27" y="23" width="10" height="2" rx="0.5" fill="#1a3c6e" opacity="0.8"/>
  <rect x="27" y="27" width="10" height="1.5" rx="0.5" fill="#1a3c6e" opacity="0.45"/>
  <rect x="27" y="30.5" width="10" height="1.5" rx="0.5" fill="#1a3c6e" opacity="0.45"/>
  <rect x="27" y="34" width="7" height="1.5" rx="0.5" fill="#1a3c6e" opacity="0.45"/>
  <rect x="27" y="37.5" width="9" height="1.5" rx="0.5" fill="#1a3c6e" opacity="0.35"/>
</svg>
